<svg id="Layer_1" viewBox="0 0 24 24" xmlns="http://www.w3.org/2000/svg" data-name="Layer 1"><path d="m20.5 0h-6c-1.93 0-3.5 1.57-3.5 3.5v8.194c0 .483.265.925.69 1.152.427.229.94.204 1.345-.067l2.619-1.779h4.846c1.93 0 3.5-1.57 3.5-3.5v-4c0-1.93-1.57-3.5-3.5-3.5zm2.5 7.5c0 1.379-1.121 2.5-2.5 2.5h-5c-.101 0-.198.03-.281.087l-2.742 1.863c-.138.094-.266.042-.314.016s-.162-.105-.162-.271v-8.195c0-1.379 1.121-2.5 2.5-2.5h6c1.379 0 2.5 1.121 2.5 2.5v4zm-4.5 7.5h-.5c0-.6-.13-1.177-.386-1.715-.118-.249-.419-.355-.666-.236-.249.118-.355.416-.236.666.191.402.288.835.288 1.285v5c0 1.654-1.346 3-3 3h-8c-1.654 0-3-1.346-3-3v-5c0-1.654 1.346-3 3-3h3c.276 0 .5-.224.5-.5s-.224-.5-.5-.5h-3c-2.206 0-4 1.794-4 4h-.5c-.827 0-1.5.673-1.5 1.5v3c0 .827.673 1.5 1.5 1.5h.642c.447 1.721 1.999 3 3.858 3h8c1.859 0 3.411-1.279 3.858-3h.642c.827 0 1.5-.673 1.5-1.5v-3c0-.827-.673-1.5-1.5-1.5zm-17 5c-.275 0-.5-.225-.5-.5v-3c0-.275.225-.5.5-.5h.5v4zm17.5-.5c0 .275-.225.5-.5.5h-.5v-4h.5c.275 0 .5.225.5.5zm-14-1.5c0 1.103.897 2 2 2s2-.897 2-2-.897-2-2-2-2 .897-2 2zm3 0c0 .552-.448 1-1 1s-1-.448-1-1 .448-1 1-1 1 .448 1 1zm7 0c0-1.103-.897-2-2-2s-2 .897-2 2 .897 2 2 2 2-.897 2-2zm-3 0c0-.552.448-1 1-1s1 .448 1 1-.448 1-1 1-1-.448-1-1zm5-15.5v6c0 .276-.224.5-.5.5s-.5-.224-.5-.5v-6c0-.276.224-.5.5-.5s.5.224.5.5zm2 1v4c0 .276-.224.5-.5.5s-.5-.224-.5-.5v-4c0-.276.224-.5.5-.5s.5.224.5.5zm2 1v2c0 .276-.224.5-.5.5s-.5-.224-.5-.5v-2c0-.276.224-.5.5-.5s.5.224.5.5zm-6-1v4c0 .276-.224.5-.5.5s-.5-.224-.5-.5v-4c0-.276.224-.5.5-.5s.5.224.5.5z"/></svg>