<svg id="Layer_1" viewBox="0 0 24 24" xmlns="http://www.w3.org/2000/svg" data-name="Layer 1"><path d="m5 10c0 1.103.897 2 2 2s2-.897 2-2-.897-2-2-2-2 .897-2 2zm3 0c0 .551-.448 1-1 1s-1-.449-1-1 .448-1 1-1 1 .449 1 1zm11 13.5c0 .276-.224.5-.5.5s-.5-.224-.5-.5c0-2.481-2.019-4.5-4.5-4.5h-7c-2.481 0-4.5 2.019-4.5 4.5 0 .276-.224.5-.5.5s-.5-.224-.5-.5c0-3.033 2.468-5.5 5.5-5.5h7c3.032 0 5.5 2.467 5.5 5.5zm-17-11.5c0 2.206 1.794 4 4 4h8c1.978 0 3.68-1.474 3.96-3.429.039-.273-.15-.526-.424-.566-.27-.038-.527.15-.566.424-.21 1.465-1.486 2.571-2.97 2.571h-8c-1.654 0-3-1.346-3-3v-4c0-1.654 1.346-3 3-3h4.5c.276 0 .5-.224.5-.5v-3c0-.276-.224-.5-.5-.5s-.5.224-.5.5v2.5h-4c-2.206 0-4 1.794-4 4h-.5c-.827 0-1.5.673-1.5 1.5v1c0 .827.673 1.5 1.5 1.5zm-1-1.5v-1c0-.276.225-.5.5-.5h.5v2h-.5c-.275 0-.5-.224-.5-.5zm20-10.5h-5c-1.657.002-3 1.345-2.999 3.002l.002 7.772c0 .638.524 1.088 1.089 1.088.196 0 .397-.054.583-.173l2.198-1.513c.167-.115.365-.176.567-.176h3.561c1.657 0 3-1.343 3-3v-4c-.001-1.656-1.344-3-3.001-3zm-3.561 8.999c-.407 0-.799.122-1.134.353l-2.213 1.51s-.089-.005-.089-.088l-.002-7.772c0-.534.208-1.037.585-1.414.378-.378.88-.586 1.414-.586h2s0 .998 0 .998h-.432c-.865 0-1.568.722-1.568 1.608 0 .712.466 1.347 1.146 1.549l2.436.647c.246.073.418.314.418.586 0 .335-.255.608-.568.608h-1.863c-.095 0-.568-.023-.568-.481 0-.276-.224-.5-.5-.5s-.5.224-.5.5c0 .858.659 1.481 1.568 1.481h.432v1h-.561zm5.561-2c0 1.103-.897 2-2 2h-2v-1h.432c.865 0 1.568-.722 1.568-1.608 0-.712-.466-1.347-1.146-1.549l-2.436-.647c-.246-.073-.418-.314-.418-.586 0-.335.255-.608.568-.608h1.863c.262 0 .568.131.568.5 0 .276.224.5.5.5s.5-.224.5-.5c0-.855-.674-1.5-1.568-1.5h-.432v-.999h2c1.103 0 2 .897 2 2v3.999z"/></svg>