<?xml version="1.0" encoding="UTF-8"?>
<svg id="Camada_2" data-name="Camada 2" xmlns="http://www.w3.org/2000/svg" viewBox="0 0 136.72 149.25">
  <defs>
    <style>
      .cls-1 {
        fill: #1a1b1c;
      }

      .cls-2 {
        fill: #e63b18;
      }
    </style>
  </defs>
  <g id="Camada_1-2" data-name="Camada 1">
    <g>
      <polygon class="cls-1" points="57.1 105.29 62.74 100.25 73.64 100.03 74.27 85.58 88.84 84.92 89.29 74.53 94.43 67.74 132.55 77.32 91.39 87.99 114.11 123.48 77.49 101.96 66.95 143.95 57.1 105.29"/>
      <polygon class="cls-1" points="58.17 69.14 44.26 69.75 19.14 31.81 55.47 52.57 65.71 10.52 75.5 49.42 69.22 54.26 58.7 54.82 58.17 69.14"/>
      <path class="cls-2" d="M74.27,69.21l-.48-13.49,34.09-30.45c9.57-8.55,18.3-16.97,28.84-25.27l-48.41,69.8-14.04-.59Z"/>
      <path class="cls-1" d="M58.75,98.88L0,149.25c.64-2.69,2.12-4.56,3.63-6.84l40.55-57.3,13.95.39.62,13.37Z"/>
      <path class="cls-1" d="M43.25,74.02c-.01,8.91.99,5.54-4.99,12.95L.01,77.79l38.33-9.95,4.91,6.18Z"/>
    </g>
  </g>
</svg>