<?xml version="1.0" encoding="UTF-8"?>
<svg id="Camada_2" data-name="Camada 2" xmlns="http://www.w3.org/2000/svg" viewBox="0 0 245.33 245.33">
  <defs>
    <style>
      .cls-1 {
        fill: #1a1b1c;
      }

      .cls-2 {
        fill: #e63b18;
      }

      .cls-3 {
        fill: #f9f7f6;
      }
    </style>
  </defs>
  <g id="Camada_1-2" data-name="Camada 1">
    <g>
      <rect class="cls-1" width="245.33" height="245.33" rx="24.85" ry="24.85"/>
      <g>
        <polygon class="cls-3" points="111.4 153.33 117.05 148.29 127.94 148.07 128.58 133.62 143.14 132.96 143.6 122.57 148.73 115.78 186.85 125.36 145.7 136.03 168.42 171.52 131.79 149.99 121.26 191.99 111.4 153.33"/>
        <polygon class="cls-3" points="112.47 117.18 98.57 117.79 73.44 79.85 109.77 100.6 120.01 58.56 129.8 97.46 123.52 102.3 113 102.85 112.47 117.18"/>
        <path class="cls-2" d="M128.58,117.25l-.48-13.49,34.09-30.45c9.57-8.55,18.3-16.97,28.84-25.27l-48.41,69.8-14.04-.59Z"/>
        <path class="cls-3" d="M113.06,146.92l-58.75,50.38c.64-2.69,2.12-4.56,3.63-6.84l40.55-57.3,13.95.39.62,13.37Z"/>
        <path class="cls-3" d="M97.55,122.06c-.01,8.91.99,5.54-4.99,12.95l-38.25-9.18,38.33-9.95,4.91,6.18Z"/>
      </g>
    </g>
  </g>
</svg>